<?xml version="1.0" encoding="UTF-8"?>
<svg id="_레이어_2" data-name="레이어 2" xmlns="http://www.w3.org/2000/svg" viewBox="0 0 790.04 828.76">
  <g id="_레이어_1-2" data-name="레이어 1">
    <g>
      <path d="M307,0h-43.83v56.16l-58-23.17c-3.22,3.89-16.82,40.64-15.4,42.41l59.68,21.17-36.93,46.58,37.45,25.12,34.44-49.09,35.81,49.42,37.45-24.19-36.93-47.84,60.23-21.97-15.07-41.73-58.89,23.29V0Z"/>
      <path d="M560.42,695.88l18.63-28.61c79.61-118.73,250.06-192.71,202.87-362.09-21.77-78.13-91.61-163.49-160.82-204.92-136.49-81.71-165.23,77.41-168.96,177.08l.05,63.76,109.59,1.36c-4.11-33.83-6.76-69.22-.97-103.02,8.68-50.73,35.16-71.61,79.69-35.29,42.5,34.66,70.55,102.99,55.9,157.19-16.58,61.34-117.51,143.49-161.35,194.8-66.33,77.62-113.67,166.12-112.99,271.26,134.49-7.12,259.28-79.9,328.76-195.2-.84-1.99-2.6-.08-3.7.41-60.13,26.6-122.77,47.7-186.7,63.27Z"/>
      <path d="M389.18,200.01c-1.24-1.23-16.65,8.88-19.06,10.38-97.53,60.91-193.04,125.16-290.62,186.07-23.31,14.55-52.63,29.17-74.31,44.87-3.82,2.77-4.99,3.61-5.17,8.65-.65,18.12,8.31,58.84,12.9,77.67,2.13,8.74,3.54,20.74,9.79,27.2,120.91,92.92,241.95,185.85,366.45,273.91l-4.79-128.76-279.19-186.54-5.03-5.23c1.35.01,2.74-.21,3.95-.84,21.78-11.39,44.08-24.91,65.45-37.3,73.29-42.46,145.95-86.02,218.94-128.97.1-44.35-2.32-89.26-.78-133.66.09-2.64,1.13-4.9,1.44-7.45Z"/>
      <path d="M560.42,695.88c63.94-15.57,126.58-36.67,186.7-63.27,1.1-.49,2.85-2.4,3.7-.41-69.48,115.29-194.28,188.08-328.76,195.2-.68-105.14,46.66-193.64,112.99-271.26,43.85-51.31,144.78-133.46,161.35-194.8,14.65-54.2-13.41-122.54-55.9-157.19-44.53-36.32-71.01-15.44-79.69,35.29-5.78,33.8-3.14,69.18.97,103.02l-109.59-1.36-.05-63.76c3.73-99.67,32.47-258.79,168.96-177.08,69.21,41.43,139.05,126.79,160.82,204.92,47.19,169.38-123.27,243.36-202.87,362.09l-18.63,28.61Z"/>
      <path d="M388.52,341.12c-72.99,42.95-145.66,86.52-218.94,128.97-21.38,12.38-43.68,25.9-65.45,37.3-1.21.63-2.6.85-3.95.84l5.03,5.23,279.19,186.54,4.79,128.76c-124.5-88.06-245.55-181-366.45-273.91-6.25-6.46-7.66-18.46-9.79-27.2C8.34,508.81-.62,468.1.03,449.98c.18-5.04,1.34-5.89,5.17-8.65,21.67-15.69,50.99-30.32,74.31-44.87,97.58-60.91,193.09-125.16,290.62-186.07,2.4-1.5,15.89-9.49,19.06-10.38"/>
      <path d="M307,0v56.16l58.89-23.29,15.07,41.73-60.23,21.97,36.93,47.84-37.45,24.19-35.81-49.42-34.44,49.09-37.45-25.12,36.93-46.58-59.68-21.17c-1.42-1.77,12.18-38.52,15.4-42.41l58,23.17V0h43.83Z"/>
    </g>
  </g>
</svg>